<svg xmlns="http://www.w3.org/2000/svg" width="32" height="32" viewBox="0 0 32 32">
    <defs>
        <style>
            .cls-1{fill:#d13980}.cls-2{fill:#fff}
        </style>
    </defs>
    <g id="phone" transform="translate(-744 -534)">
        <circle id="Ellipse_135" cx="16" cy="16" r="16" class="cls-1" data-name="Ellipse 135" transform="translate(744 534)"/>
        <path id="phone-2" d="M5.929 9.3a12.215 12.215 0 0 0 5.332 5.332l1.78-1.78a.812.812 0 0 1 .825-.2 9.192 9.192 0 0 0 2.889.461.809.809 0 0 1 .809.809v2.832a.809.809 0 0 1-.809.809A13.755 13.755 0 0 1 3 3.809.809.809 0 0 1 3.809 3h2.832a.809.809 0 0 1 .809.809A9.192 9.192 0 0 0 7.911 6.7a.812.812 0 0 1-.2.825z" class="cls-2" data-name="phone" transform="translate(750 539.436)"/>
    </g>
</svg>
